<svg width="89" height="25" viewBox="0 0 89 25" fill="none" xmlns="http://www.w3.org/2000/svg">
<path d="M22.7388 12.235C22.7388 6.03132 19.3521 1.25195 10.7429 1.25195H1.53235V23.218H10.7429C19.3521 23.218 22.7388 18.4387 22.7388 12.235ZM16.4718 12.235C16.4718 16.5712 14.0347 18.1855 10.648 18.1855H7.51446V6.28453H10.648C14.0347 6.28453 16.4718 7.89875 16.4718 12.235Z" fill="white"/>
<path d="M24.1714 23.218H41.5796V18.2171H30.1535V14.4506H40.187V9.70286H30.1535V6.25287H41.2948V1.25195H24.1714V23.218Z" fill="white"/>
<path d="M61.8443 8.87996C61.8443 3.34095 58.2993 1.25195 52.792 1.25195H43.2649V23.218H49.247V16.508H52.792C58.2993 16.508 61.8443 14.4189 61.8443 8.87996ZM55.6407 8.87996C55.6407 11.0323 54.6278 11.9185 52.1906 11.9185H49.247V5.84141H52.1906C54.6278 5.84141 55.6407 6.72764 55.6407 8.87996Z" fill="white"/>
<path d="M62.4972 6.37948H69.4288V23.218H75.4109V6.37948H82.3425V1.25195H62.4972V6.37948Z" fill="white"/>
<path d="M79.8569 20.1426C79.8569 22.1304 81.4661 23.7395 83.4541 23.7395C85.4418 23.7395 87.067 22.1304 87.067 20.1426C87.067 18.1547 85.4418 16.5298 83.4541 16.5298C81.4661 16.5298 79.8569 18.1547 79.8569 20.1426ZM80.5511 20.1426C80.5511 18.5019 81.8447 17.1608 83.4541 17.1608C85.0629 17.1608 86.3726 18.5019 86.3726 20.1426C86.3726 21.7832 85.0629 23.1084 83.4541 23.1084C81.8447 23.1084 80.5511 21.7832 80.5511 20.1426ZM81.7658 21.9253H82.9014V20.6947H83.5489L84.2268 21.9253H85.4574L84.637 20.4739C85.0159 20.3161 85.2993 19.8902 85.2993 19.4169C85.2993 18.5807 84.763 18.1863 83.8479 18.1863H81.7658V21.9253ZM84.1477 19.4326C84.1477 19.7323 83.9591 19.8586 83.5958 19.8586H82.9014V19.0697H83.5958C83.9591 19.0697 84.1477 19.1645 84.1477 19.4326Z" fill="white"/>
</svg>
